<?xml version="1.0" encoding="UTF-8" standalone="no"?>
<!-- Created with Inkscape (http://www.inkscape.org/) -->

<svg
   xmlns:dc="http://purl.org/dc/elements/1.1/"
   xmlns:cc="http://creativecommons.org/ns#"
   xmlns:rdf="http://www.w3.org/1999/02/22-rdf-syntax-ns#"
   xmlns:svg="http://www.w3.org/2000/svg"
   xmlns="http://www.w3.org/2000/svg"
   xmlns:xlink="http://www.w3.org/1999/xlink"
   xmlns:sodipodi="http://sodipodi.sourceforge.net/DTD/sodipodi-0.dtd"
   xmlns:inkscape="http://www.inkscape.org/namespaces/inkscape"
   width="500"
   height="500"
   viewBox="0 0 500.00001 500.00001"
   id="svg2"
   version="1.1"
   inkscape:version="0.91 r13725"
   enable-background="new"
   sodipodi:docname="Logo.svg"
   inkscape:export-filename="C:\Users\Joshua\Desktop\path4209.png"
   inkscape:export-xdpi="92.160004"
   inkscape:export-ydpi="92.160004">
  <defs
     id="defs4">
    <linearGradient
       inkscape:collect="always"
       id="linearGradient4343">
      <stop
         style="stop-color:#388e3c;stop-opacity:1;"
         offset="0"
         id="stop4345" />
      <stop
         style="stop-color:#388e3c;stop-opacity:0;"
         offset="1"
         id="stop4347" />
    </linearGradient>
    <filter
       style="color-interpolation-filters:sRGB;"
       inkscape:label="Drop Shadow"
       id="filter4520">
      <feFlood
         flood-opacity="0.498039"
         flood-color="rgb(0,0,0)"
         result="flood"
         id="feFlood4522" />
      <feComposite
         in="flood"
         in2="SourceGraphic"
         operator="in"
         result="composite1"
         id="feComposite4524" />
      <feGaussianBlur
         in="composite1"
         stdDeviation="8"
         result="blur"
         id="feGaussianBlur4526" />
      <feOffset
         dx="4.63518e-015"
         dy="0"
         result="offset"
         id="feOffset4528" />
      <feComposite
         in="SourceGraphic"
         in2="offset"
         operator="over"
         result="composite2"
         id="feComposite4530" />
    </filter>
    <linearGradient
       inkscape:collect="always"
       xlink:href="#linearGradient4343"
       id="linearGradient4349"
       x1="11.279549"
       y1="190.64021"
       x2="279.57333"
       y2="655.33868"
       gradientUnits="userSpaceOnUse" />
    <clipPath
       clipPathUnits="userSpaceOnUse"
       id="clipPath4359">
      <rect
         ry="48.653625"
         y="1.3427961"
         x="1.3427492"
         height="497.31451"
         width="497.31448"
         id="rect4361"
         style="display:inline;fill:#4caf50;fill-opacity:1;stroke:#4caf50;stroke-width:2.68549848;stroke-miterlimit:4;stroke-dasharray:none;stroke-opacity:1" />
    </clipPath>
  </defs>
  <sodipodi:namedview
     id="base"
     pagecolor="#ffffff"
     bordercolor="#666666"
     borderopacity="1.0"
     inkscape:pageopacity="0.0"
     inkscape:pageshadow="2"
     inkscape:zoom="1.4142136"
     inkscape:cx="64.706727"
     inkscape:cy="276.32621"
     inkscape:document-units="px"
     inkscape:current-layer="layer6"
     showgrid="false"
     units="px"
     inkscape:snap-smooth-nodes="false"
     inkscape:object-nodes="true"
     inkscape:snap-intersection-paths="true"
     inkscape:object-paths="true"
     inkscape:window-width="1920"
     inkscape:window-height="1017"
     inkscape:window-x="1912"
     inkscape:window-y="-8"
     inkscape:window-maximized="1"
     inkscape:snap-grids="false"
     showguides="false"
     inkscape:guide-bbox="true">
    <inkscape:grid
       type="xygrid"
       id="grid4623" />
    <sodipodi:guide
       position="50.000001,242.294"
       orientation="-0.8660254,-0.5"
       id="guide4329"
       inkscape:label=""
       inkscape:color="rgb(0,0,255)" />
    <sodipodi:guide
       position="442.24848,418.52544"
       orientation="-0.8660254,-0.5"
       id="guide4331"
       inkscape:label=""
       inkscape:color="rgb(0,0,255)" />
  </sodipodi:namedview>
  <metadata
     id="metadata7">
    <rdf:RDF>
      <cc:Work
         rdf:about="">
        <dc:format>image/svg+xml</dc:format>
        <dc:type
           rdf:resource="http://purl.org/dc/dcmitype/StillImage" />
        <dc:title />
      </cc:Work>
    </rdf:RDF>
  </metadata>
  <g
     inkscape:label="background"
     inkscape:groupmode="layer"
     id="layer1"
     transform="translate(0,-552.36216)"
     style="display:inline">
    <rect
       style="fill:#4caf50;fill-opacity:1;stroke:#4caf50;stroke-width:2.68549848;stroke-miterlimit:4;stroke-dasharray:none;stroke-opacity:1"
       id="rect4240"
       width="497.31448"
       height="497.31451"
       x="1.3427492"
       y="553.70496"
       ry="48.653625" />
  </g>
  <g
     inkscape:groupmode="layer"
     id="layer6"
     inkscape:label="logo shadow"
     style="display:inline">
    <path
       style="fill:url(#linearGradient4349);fill-rule:evenodd;stroke:none;stroke-width:1px;stroke-linecap:butt;stroke-linejoin:miter;stroke-opacity:1;fill-opacity:1"
       d="M 50.000242,257.70642 211.3237,537.12685 701.44167,530.41036 442.26344,81.500435 180.13545,224.40513 l -25.45584,-22.80419 -33.05724,-4.94975 -24.748741,9.72272 -21.38998,24.21841 -6.187185,18.208 z"
       id="path4333"
       inkscape:connector-curvature="0"
       clip-path="url(#clipPath4359)" />
  </g>
  <g
     inkscape:groupmode="layer"
     id="layer4"
     inkscape:label="logo"
     style="display:inline;opacity:1">
    <g
       style="fill:#ffffff;filter:url(#filter4520)"
       id="g4304"
       transform="matrix(0.8,0,0,0.8,50,50)">
      <path
         inkscape:export-filename="C:\Users\Joshua\Desktop\GeoShare.png"
         style="fill:#ffffff"
         inkscape:export-ydpi="1875"
         inkscape:export-xdpi="1875"
         inkscape:connector-curvature="0"
         d="m 98.656321,217.56878 c -19.820961,0 -35.87505,15.05898 -35.87505,33.65135 0,18.59237 16.054089,33.65136 35.87505,33.65136 19.820959,0 35.875049,-15.05899 35.875049,-33.65136 0,-18.59237 -16.05409,-33.65135 -35.875049,-33.65135 z m 80.180539,25.23845 c -4.12544,-35.08133 -33.8122,-62.92796 -71.21171,-66.79769 l 0,-17.33057 -17.937657,0 0,17.33057 c -37.399781,3.86973 -67.086267,31.71636 -71.211977,66.79769 l -18.475516,0 0,16.8258 18.475516,0 c 4.12571,35.08133 33.812196,62.92796 71.211977,66.79769 l 0,17.33058 17.937657,0 0,-17.33058 c 37.39951,-3.86973 67.08627,-31.71636 71.21171,-66.79769 l 18.47578,0 0,-16.8258 -18.47578,0 z m -80.180539,67.30271 c -34.709157,0 -62.781271,-26.33208 -62.781271,-58.88981 0,-32.55773 28.072114,-58.88981 62.781271,-58.88981 34.708889,0 62.781269,26.33208 62.781269,58.88981 0,32.55773 -28.07238,58.88981 -62.781269,58.88981 z m 54.546439,-4.13604 190.5244,104.41767 c -1.33797,5.27108 -2.14075,10.79317 -2.14075,16.31526 0,40.41164 35.05434,73.29317 78.13639,73.29317 43.08207,0 78.13642,-32.88153 78.13642,-73.29317 0,-40.41165 -35.05435,-73.29318 -78.13642,-73.29318 -20.33688,0 -38.53302,7.53013 -52.44771,19.32731 L 176.48313,268.5743 m 0,-35.14057 188.65128,-103.16265 c 14.44988,12.55021 33.44881,20.33133 54.58844,20.33133 C 464.14287,150.60241 500,116.96787 500,75.301205 500,33.634538 464.14287,0 419.72285,0 c -44.42001,0 -80.27712,33.634538 -80.27712,75.301205 0,6.024096 1.07038,11.797189 2.40835,17.570281 L 153.20282,196.03414"
         id="path6-5" />
    </g>
  </g>
</svg>
